<svg width="293" height="308" viewBox="0 0 293 308" fill="none" xmlns="http://www.w3.org/2000/svg">
<path d="M144.201 0.879922C145.401 -0.293306 147.318 -0.293308 148.518 0.879921L183.479 35.0549C184.168 35.7288 185.132 36.0421 186.086 35.9021L234.457 28.8031C236.118 28.5594 237.669 29.6864 237.95 31.341L246.146 79.5383C246.308 80.4886 246.904 81.309 247.758 81.7563L291.063 104.445C292.55 105.224 293.143 107.047 292.398 108.551L270.699 152.361C270.271 153.225 270.271 154.239 270.699 155.103L292.398 198.913C293.143 200.417 292.55 202.24 291.063 203.019L247.758 225.708C246.904 226.155 246.308 226.975 246.146 227.925L237.95 276.123C237.669 277.777 236.118 278.904 234.457 278.661L186.086 271.562C185.132 271.422 184.168 271.735 183.479 272.409L148.518 306.584C147.318 307.757 145.401 307.757 144.201 306.584L109.24 272.409C108.551 271.735 107.587 271.422 106.633 271.562L58.262 278.661C56.6014 278.904 55.0501 277.777 54.7688 276.123L46.5729 227.925C46.4113 226.975 45.8153 226.155 44.9615 225.708L1.65577 203.019C0.169085 202.24 -0.423444 200.417 0.321486 198.913L22.0206 155.103C22.4484 154.239 22.4484 153.225 22.0206 152.361L0.321486 108.551C-0.423443 107.047 0.169083 105.224 1.65577 104.445L44.9615 81.7563C45.8153 81.309 46.4113 80.4886 46.5729 79.5383L54.7688 31.341C55.0501 29.6864 56.6014 28.5594 58.262 28.8031L106.633 35.9021C107.587 36.0421 108.551 35.7288 109.24 35.0549L144.201 0.879922Z" fill="#FF7C1E"/>
</svg>
